<?xml version="1.0" encoding="UTF-8"?>
<!DOCTYPE svg PUBLIC "-//W3C//DTD SVG 1.1//EN" "http://www.w3.org/Graphics/SVG/1.1/DTD/svg11.dtd">
<svg xmlns="http://www.w3.org/2000/svg" version="1.1" width="4096px" height="4096px" style="shape-rendering:geometricPrecision; text-rendering:geometricPrecision; image-rendering:optimizeQuality; fill-rule:evenodd; clip-rule:evenodd" xmlns:xlink="http://www.w3.org/1999/xlink">
<g><path style="opacity:1" fill="#fefefe" d="M 2348.5,766.5 C 2432.64,766.571 2516.64,770.071 2600.5,777C 2623.47,778.701 2646.31,781.201 2669,784.5C 2666.62,920.851 2663.28,1057.18 2659,1193.5C 2658.67,1193.83 2658.33,1194.17 2658,1194.5C 2559.24,1192.87 2460.41,1192.37 2361.5,1193C 2332.88,1193.49 2305.21,1198.83 2278.5,1209C 2244.87,1223.3 2223.37,1248.13 2214,1283.5C 2209.16,1300.85 2206.16,1318.51 2205,1336.5C 2203.54,1454.82 2203.04,1573.16 2203.5,1691.5C 2359.07,1691.83 2514.57,1691.5 2670,1690.5C 2670.83,1691.33 2671.67,1692.17 2672.5,1693C 2665.19,1838.43 2658.19,1983.93 2651.5,2129.5C 2502.17,2129.5 2352.83,2129.5 2203.5,2129.5C 2203.67,2528.83 2203.5,2928.17 2203,3327.5C 2049.24,3328.67 1895.4,3328.83 1741.5,3328C 1741,3327.5 1740.5,3327 1740,3326.5C 1739.5,2927.5 1739.33,2528.5 1739.5,2129.5C 1634.17,2129.67 1528.83,2129.5 1423.5,2129C 1422.33,1983.57 1422.17,1838.07 1423,1692.5C 1423.67,1691.83 1424.33,1691.17 1425,1690.5C 1529.76,1691.5 1634.6,1691.83 1739.5,1691.5C 1739.33,1568.5 1739.5,1445.5 1740,1322.5C 1739.59,1211.8 1768.25,1109.47 1826,1015.5C 1894.62,913.267 1987.79,843.1 2105.5,805C 2184.7,780.092 2265.7,767.258 2348.5,766.5 Z"/></g>
</svg>
