<?xml version="1.0" encoding="UTF-8"?>
<!DOCTYPE svg PUBLIC "-//W3C//DTD SVG 1.1//EN" "http://www.w3.org/Graphics/SVG/1.1/DTD/svg11.dtd">
<svg xmlns="http://www.w3.org/2000/svg" version="1.1" width="512px" height="512px" style="shape-rendering:geometricPrecision; text-rendering:geometricPrecision; image-rendering:optimizeQuality; fill-rule:evenodd; clip-rule:evenodd" xmlns:xlink="http://www.w3.org/1999/xlink">
<g><path style="opacity:0.981" fill="#fefffe" d="M 92.5,49.5 C 122.259,47.9394 141.426,61.2727 150,89.5C 154.098,116.137 144.265,135.637 120.5,148C 92.4843,156.997 70.651,149.164 55,124.5C 44.2834,98.2003 49.7834,76.0336 71.5,58C 78.1874,54.0569 85.1874,51.2235 92.5,49.5 Z"/></g>
<g><path style="opacity:0.989" fill="#fefffe" d="M 350.5,178.5 C 418.271,175.776 455.437,208.109 462,275.5C 462.5,337.832 462.667,400.166 462.5,462.5C 433.833,462.5 405.167,462.5 376.5,462.5C 376.971,407.138 376.471,351.805 375,296.5C 367.69,263.583 347.523,251.083 314.5,259C 296.37,265.049 285.536,277.549 282,296.5C 281.088,300.795 280.421,305.128 280,309.5C 279.5,360.499 279.333,411.499 279.5,462.5C 252.167,462.5 224.833,462.5 197.5,462.5C 197.5,370.5 197.5,278.5 197.5,186.5C 224.833,186.5 252.167,186.5 279.5,186.5C 279.333,198.171 279.5,209.838 280,221.5C 297.32,197.088 320.82,182.754 350.5,178.5 Z"/></g>
<g><path style="opacity:0.987" fill="#fefffe" d="M 57.5,186.5 C 86.1667,186.5 114.833,186.5 143.5,186.5C 143.5,278.5 143.5,370.5 143.5,462.5C 114.833,462.5 86.1667,462.5 57.5,462.5C 57.5,370.5 57.5,278.5 57.5,186.5 Z"/></g>
</svg>
