<?xml version="1.0" encoding="UTF-8"?>
<!DOCTYPE svg PUBLIC "-//W3C//DTD SVG 1.1//EN" "http://www.w3.org/Graphics/SVG/1.1/DTD/svg11.dtd">
<svg xmlns="http://www.w3.org/2000/svg" version="1.1" width="1600px" height="1600px" style="shape-rendering:geometricPrecision; text-rendering:geometricPrecision; image-rendering:optimizeQuality; fill-rule:evenodd; clip-rule:evenodd" xmlns:xlink="http://www.w3.org/1999/xlink">
<g><path style="opacity:1" fill="#fefefe" d="M 267.5,1131.5 C 268.287,1129.9 269.62,1129.23 271.5,1129.5C 389.698,1140.05 496.032,1110.05 590.5,1039.5C 591.289,1039.22 591.956,1038.72 592.5,1038C 589.183,1037.5 585.85,1037.33 582.5,1037.5C 505.716,1030.5 446.882,994.497 406,929.5C 398.587,916.006 392.253,902.006 387,887.5C 386.333,885.833 386.333,884.167 387,882.5C 418.68,888.343 450.514,887.509 482.5,880C 398.165,857.998 342.665,805.498 316,722.5C 310.466,701.857 307.966,680.857 308.5,659.5C 324.557,667.354 341.224,673.854 358.5,679C 374.315,682.926 390.315,685.259 406.5,686C 350.722,646.651 318.889,592.817 311,524.5C 306.226,476.35 316.226,431.683 341,390.5C 445.378,516.304 578.878,591.804 741.5,617C 759.887,619.567 778.22,621.067 796.5,621.5C 781.875,550.005 797.375,486.005 843,429.5C 894.243,371.486 958.743,345.319 1036.5,351C 1090.91,357.204 1136.91,379.871 1174.5,419C 1224.87,410.208 1272.04,392.708 1316,366.5C 1316.5,366.667 1317,366.833 1317.5,367C 1300.55,417.6 1269.88,457.6 1225.5,487C 1266.97,482.291 1306.8,471.457 1345,454.5C 1345.5,454.833 1346,455.167 1346.5,455.5C 1317.05,500.117 1280.55,538.117 1237,569.5C 1239.91,731.783 1191.57,876.45 1092,1003.5C 980.321,1138.11 836.488,1212.94 660.5,1228C 518.601,1238.93 387.601,1206.77 267.5,1131.5 Z"/></g>
<g><path style="opacity:0.304" fill="#51a8ee" d="M 582.5,1037.5 C 585.85,1037.33 589.183,1037.5 592.5,1038C 591.956,1038.72 591.289,1039.22 590.5,1039.5C 587.833,1038.83 585.167,1038.17 582.5,1037.5 Z"/></g>
<g><path style="opacity:0.349" fill="#53abef" d="M 271.5,1129.5 C 269.62,1129.23 268.287,1129.9 267.5,1131.5C 266.357,1131.09 265.357,1130.43 264.5,1129.5C 266.973,1128.2 269.307,1128.2 271.5,1129.5 Z"/></g>
</svg>
